<?xml version="1.0" encoding="UTF-8" standalone="no"?>
<!-- Created with Inkscape (http://www.inkscape.org/) -->

<svg
   xmlns:dc="http://purl.org/dc/elements/1.1/"
   xmlns:cc="http://creativecommons.org/ns#"
   xmlns:rdf="http://www.w3.org/1999/02/22-rdf-syntax-ns#"
   xmlns:svg="http://www.w3.org/2000/svg"
   xmlns="http://www.w3.org/2000/svg"
   xmlns:sodipodi="http://sodipodi.sourceforge.net/DTD/sodipodi-0.dtd"
   xmlns:inkscape="http://www.inkscape.org/namespaces/inkscape"
   width="224.65802"
   height="64.57724"
   id="svg3912"
   version="1.1"
   inkscape:version="0.48.4 r9939"
   sodipodi:docname="Novo documento 5">
  <defs
     id="defs3914" />
  <sodipodi:namedview
     id="base"
     pagecolor="#ffffff"
     bordercolor="#666666"
     borderopacity="1.0"
     inkscape:pageopacity="0.0"
     inkscape:pageshadow="2"
     inkscape:zoom="0.35"
     inkscape:cx="293.75765"
     inkscape:cy="-410.56854"
     inkscape:document-units="px"
     inkscape:current-layer="layer1"
     showgrid="false"
     fit-margin-top="0"
     fit-margin-left="0"
     fit-margin-right="0"
     fit-margin-bottom="0"
     inkscape:window-width="1366"
     inkscape:window-height="705"
     inkscape:window-x="-8"
     inkscape:window-y="-8"
     inkscape:window-maximized="1" />
  <metadata
     id="metadata3917">
    <rdf:RDF>
      <cc:Work
         rdf:about="">
        <dc:format>image/svg+xml</dc:format>
        <dc:type
           rdf:resource="http://purl.org/dc/dcmitype/StillImage" />
        <dc:title></dc:title>
      </cc:Work>
    </rdf:RDF>
  </metadata>
  <g
     inkscape:label="Camada 1"
     inkscape:groupmode="layer"
     id="layer1"
     transform="translate(-56.242354,-57.216398)">
    <g
       transform="translate(-2604.92,5435.0538)"
       id="g3879">
      <rect
         style="fill:none"
         y="-5377.8374"
         x="2661.1624"
         height="64.57724"
         width="224.65802"
         id="rect3007" />
      <g
         style="fill:#ffffff"
         transform="matrix(0.07744018,0,0,0.07744018,2670.2754,-5368.5825)"
         id="g3020">
        <path
           style="fill:#ffffff"
           inkscape:connector-curvature="0"
           d="m 449.999,438.157 c -18.993,0 -36.132,7.374 -49.12,19.251 L 222.748,353.538 c 1.379,-5.627 2.252,-11.498 2.252,-17.505 0,-6 -0.873,-11.877 -2.252,-17.498 L 398.998,215.66 c 13.38,12.5 31.251,20.251 51.001,20.251 41.383,0 75.001,-33.63 75.001,-75 0,-41.375 -33.618,-75 -75.001,-75 -41.381,0 -74.999,33.624 -74.999,75 0,5.994 0.879,11.872 2.245,17.499 L 201.001,281.285 c -13.379,-12.5 -31.25,-20.252 -51.001,-20.252 -41.375,0 -75,33.625 -75,75 0,41.383 33.625,75.001 75,75.001 19.751,0 37.623,-7.752 51.001,-20.252 l 178.125,103.869 c -1.245,5.249 -2.002,10.754 -2.002,16.382 0,40.247 32.63,72.876 72.875,72.876 40.247,0 72.877,-32.629 72.877,-72.876 0,-40.246 -32.63,-72.876 -72.877,-72.876 z"
           id="path3010" />
        <path
           style="fill:#ffffff"
           inkscape:connector-curvature="0"
           d="m 524.296,160.932 c 0,41.418 -33.614,74.996 -75.004,74.996 -41.413,0 -74.996,-33.586 -74.996,-74.996 0,-11.775 2.53,-23.018 7.587,-32.873 4.907,-9.637 5.518,-9.344 12.414,-19.604 7.932,-11.821 18.673,-27.241 27.481,-42.503 16.308,-28.148 27.514,-54.99 27.514,-54.99 0,0 11.085,26.684 27.493,54.996 8.789,15.173 19.515,30.6 27.514,42.502 6.948,10.361 7.51,9.966 12.553,19.931 5.002,9.742 7.444,20.91 7.444,32.541 z"
           id="path3012" />
      </g>
      <text
         sodipodi:linespacing="125%"
         id="text3032"
         y="-5335.2607"
         x="2719.7129"
         style="font-size:27.4347496px;font-style:normal;font-variant:normal;font-weight:normal;font-stretch:normal;line-height:125%;letter-spacing:0px;word-spacing:0px;fill:#ffffff;fill-opacity:1;stroke:none;font-family:Open Sans;-inkscape-font-specification:Open Sans"
         xml:space="preserve"><tspan
           y="-5335.2607"
           x="2719.7129"
           id="tspan3034"
           sodipodi:role="line"><tspan
             id="tspan3040"
             style="font-style:normal;font-variant:normal;font-weight:normal;font-stretch:normal;font-family:Open Sans;-inkscape-font-specification:Open Sans"><tspan
               id="tspan3042"
               style="font-style:normal;font-variant:normal;font-weight:normal;font-stretch:normal;font-family:Open Sans;-inkscape-font-specification:Open Sans"><tspan
                 id="tspan3048"
                 style="font-style:normal;font-variant:normal;font-weight:normal;font-stretch:normal;font-family:Open Sans;-inkscape-font-specification:Open Sans">share<tspan
   id="tspan3052"
   style="font-style:normal;font-variant:normal;font-weight:bold;font-stretch:normal;font-family:Open Sans;-inkscape-font-specification:Open Sans Bold">blood </tspan></tspan></tspan></tspan></tspan></text>
    </g>
  </g>
</svg>
